<svg xmlns="http://www.w3.org/2000/svg" viewBox="0 0 100 100">
  <rect width="100" height="100" rx="20" fill="#25D366"/>
  <path d="M50 20c-16.5 0-30 12.5-30 28 0 5.3 1.7 10.2 4.6 14.2L20 75l13.3-3.5c4.1 2.2 8.8 3.5 13.7 3.5 16.5 0 30-12.5 30-28S66.5 20 50 20z" fill="white"/>
  <path d="M40 42c-.5-1.2-1.2-2.8-1.8-2.8s-1.4 0-2 .8l-.8 1c-.5.5-1.2 1.5-1.2 2.8 0 1.5 1 3 1.5 3.5l1 .5c.5.5 1.5 2 3.5 3 1.5.8 2.5 1 3.5.5.8-.5 1.5-1.2 2.5-2.5 1-1.2 1-2.2.8-2.8-.3-.5-1.2-1.5-1.8-2-.5-.5-1-1-1.5-1.5-.5-.5-1-.5-1.5-.5-.5 0-1.5.5-2.5 1.5-.5.5-1.5 1-1.5 1.5z" fill="#25D366"/>
</svg>
